<svg xmlns="http://www.w3.org/2000/svg" width="31.5" height="31.5" viewBox="0 0 31.5 31.5"><path d="M6.342,16.045a9.639,9.639,0,0,1,5.323-6.729,62.024,62.024,0,0,1,3.565,5.555,35.819,35.819,0,0,1-8.887,1.174ZM22.12,10.828A9.575,9.575,0,0,0,13.5,8.677,51.72,51.72,0,0,1,17.086,14.3,10.9,10.9,0,0,0,22.12,10.828ZM9.851,25.594A9.591,9.591,0,0,0,19.5,26.859a39.67,39.67,0,0,0-2.053-7.284A13.511,13.511,0,0,0,9.851,25.594ZM16.8,17.986c-.239-.548-.506-1.09-.78-1.631a35.186,35.186,0,0,1-9.872,1.364c0,.1-.007.2-.007.3a9.592,9.592,0,0,0,2.468,6.427A14.9,14.9,0,0,1,16.8,17.986Zm2.454,1.146a41.088,41.088,0,0,1,1.863,6.848,9.619,9.619,0,0,0,4.12-6.441,14.02,14.02,0,0,0-5.984-.408Zm-1.427-3.4c.337.689.584,1.252.844,1.884a22.4,22.4,0,0,1,6.694.309,9.518,9.518,0,0,0-2.173-5.984,12.865,12.865,0,0,1-5.365,3.79ZM31.5,5.625v24.75a3.376,3.376,0,0,1-3.375,3.375H3.375A3.376,3.376,0,0,1,0,30.375V5.625A3.376,3.376,0,0,1,3.375,2.25h24.75A3.376,3.376,0,0,1,31.5,5.625ZM27,18A11.25,11.25,0,1,0,15.75,29.25,11.265,11.265,0,0,0,27,18Z" transform="translate(0 -2.25)" fill="#ffafa3"/></svg>