<svg xmlns="http://www.w3.org/2000/svg" width="381.084" height="339.222" viewBox="0 0 381.084 339.222"><g transform="translate(0.512 0.541)"><g transform="translate(0)"><g transform="translate(0 289.637)"><path d="M250.776,760.091c15.836-15.2-3.167-38.007,20.9-38.641,17.694-2.268,9.4,41.622,9.4,41.622s-29.139.633-29.772.633-6.968-1.9-6.968-1.9Z" transform="translate(-240.957 -721.366)" fill="#468741" stroke="#000" stroke-linecap="round" stroke-linejoin="round" stroke-width="1"/><rect width="183.068" height="10.135" rx="5.068" transform="translate(0 38.409)" fill="#5cb357" stroke="#000" stroke-linecap="round" stroke-linejoin="round" stroke-width="1"/></g><g transform="translate(197.004 291.534)"><path d="M565.269,761.189c15.2-13.3-8.235-33.573,16.47-36.74,17.694-2.268,9.5,39.907,9.5,39.907s-29.139.633-29.772.633-6.968-1.9-6.968-1.9Z" transform="translate(-551.649 -724.361)" fill="#468741" stroke="#000" stroke-linecap="round" stroke-linejoin="round" stroke-width="1"/><rect width="183.068" height="10.135" rx="5.068" transform="translate(0 36.512)" fill="#5cb357" stroke="#000" stroke-linecap="round" stroke-linejoin="round" stroke-width="1"/></g><g transform="translate(0.002 60.413)"><path d="M338.77,359.5s3.751,177.825,4.437,191.837c.021.431.059.862.108,1.29,3.213,27.868-10.433,31.607-43.9,33.558-19.67,1.005-37.84,2.829-44.271,4.434-.595.148-1.195.275-1.8.365-20.976,3.134-19.012,32.859,6.327,34.946,25.691,2.116,79.914.982,87.622.982,10.457,0,43.638.535,44.615.508,28.932-.784,30.8-23.325,29.314-51.21C420.166,551.881,423.9,359.5,423.9,359.5" transform="translate(-239.003 -359.5)" fill="#ffb0dd" stroke="#000" stroke-linecap="round" stroke-linejoin="round" stroke-width="1"/><g transform="translate(106.735 66.512)"><line y2="2.851" transform="translate(1.267 77.281)" fill="#ffb0dd" stroke="#000" stroke-linecap="round" stroke-linejoin="round" stroke-width="0.5"/><line y2="2.851" transform="translate(13.936 73.48)" fill="#ffb0dd" stroke="#000" stroke-linecap="round" stroke-linejoin="round" stroke-width="0.5"/><line y2="2.851" transform="translate(19.004 60.811)" fill="#ffb0dd" stroke="#000" stroke-linecap="round" stroke-linejoin="round" stroke-width="0.5"/><line y2="2.851" transform="translate(24.705 26.605)" fill="#ffb0dd" stroke="#000" stroke-linecap="round" stroke-linejoin="round" stroke-width="0.5"/><line y2="2.851" transform="translate(3.801 3.801)" fill="#ffb0dd" stroke="#000" stroke-linecap="round" stroke-linejoin="round" stroke-width="0.5"/><line y2="2.851" transform="translate(13.936 12.669)" fill="#ffb0dd" stroke="#000" stroke-linecap="round" stroke-linejoin="round" stroke-width="0.5"/><line y2="2.851" transform="translate(69.68 46.875)" fill="#ffb0dd" stroke="#000" stroke-linecap="round" stroke-linejoin="round" stroke-width="0.5"/><line y2="2.851" transform="translate(6.968 46.242)" fill="#ffb0dd" stroke="#000" stroke-linecap="round" stroke-linejoin="round" stroke-width="0.5"/><line y2="2.851" transform="translate(27.238 78.548)" fill="#ffb0dd" stroke="#000" stroke-linecap="round" stroke-linejoin="round" stroke-width="0.5"/><line y2="2.851" transform="translate(39.907 72.214)" fill="#ffb0dd" stroke="#000" stroke-linecap="round" stroke-linejoin="round" stroke-width="0.5"/><line y2="2.851" transform="translate(58.278 58.278)" fill="#ffb0dd" stroke="#000" stroke-linecap="round" stroke-linejoin="round" stroke-width="0.5"/><line y2="2.851" transform="translate(0.633 58.278)" fill="#ffb0dd" stroke="#000" stroke-linecap="round" stroke-linejoin="round" stroke-width="0.5"/><line y2="2.851" transform="translate(15.836 38.007)" fill="#ffb0dd" stroke="#000" stroke-linecap="round" stroke-linejoin="round" stroke-width="0.5"/><line y2="2.851" transform="translate(53.843 77.915)" fill="#ffb0dd" stroke="#000" stroke-linecap="round" stroke-linejoin="round" stroke-width="0.5"/><line y2="2.851" transform="translate(34.84 57.644)" fill="#ffb0dd" stroke="#000" stroke-linecap="round" stroke-linejoin="round" stroke-width="0.5"/><line y2="2.851" transform="translate(2.534 17.737)" fill="#ffb0dd" stroke="#000" stroke-linecap="round" stroke-linejoin="round" stroke-width="0.5"/><line y2="2.851" transform="translate(27.238 1.9)" fill="#ffb0dd" stroke="#000" stroke-linecap="round" stroke-linejoin="round" stroke-width="0.5"/><line y2="2.851" transform="translate(55.11 39.274)" fill="#ffb0dd" stroke="#000" stroke-linecap="round" stroke-linejoin="round" stroke-width="0.5"/><line y2="2.851" transform="translate(37.374 10.769)" fill="#ffb0dd" stroke="#000" stroke-linecap="round" stroke-linejoin="round" stroke-width="0.5"/><line y2="2.851" transform="translate(73.48 32.94)" fill="#ffb0dd" stroke="#000" stroke-linecap="round" stroke-linejoin="round" stroke-width="0.5"/><line y2="2.851" transform="translate(66.512 22.804)" fill="#ffb0dd" stroke="#000" stroke-linecap="round" stroke-linejoin="round" stroke-width="0.5"/><line y2="2.851" transform="translate(49.409 31.039)" fill="#ffb0dd" stroke="#000" stroke-linecap="round" stroke-linejoin="round" stroke-width="0.5"/><line y2="2.851" transform="translate(73.48 8.868)" fill="#ffb0dd" stroke="#000" stroke-linecap="round" stroke-linejoin="round" stroke-width="0.5"/><line y2="2.851" transform="translate(69.046 73.48)" fill="#ffb0dd" stroke="#000" stroke-linecap="round" stroke-linejoin="round" stroke-width="0.5"/><line y2="2.851" transform="translate(30.406 40.541)" fill="#ffb0dd" stroke="#000" stroke-linecap="round" stroke-linejoin="round" stroke-width="0.5"/><line y2="2.851" transform="translate(43.708 22.171)" fill="#ffb0dd" stroke="#000" stroke-linecap="round" stroke-linejoin="round" stroke-width="0.5"/><line y2="2.851" transform="translate(59.544 9.502)" fill="#ffb0dd" stroke="#000" stroke-linecap="round" stroke-linejoin="round" stroke-width="0.5"/><line y2="2.851" transform="translate(45.609 49.409)" fill="#ffb0dd" stroke="#000" stroke-linecap="round" stroke-linejoin="round" stroke-width="0.5"/><line y2="2.851" transform="translate(0 31.673)" fill="#ffb0dd" stroke="#000" stroke-linecap="round" stroke-linejoin="round" stroke-width="0.5"/><line y2="2.851" transform="translate(54.477)" fill="#ffb0dd" stroke="#000" stroke-linecap="round" stroke-linejoin="round" stroke-width="0.5"/></g><path d="M422.385,596.5s-2.219,42.253-1.161,66.583c1.483,27.885-.382,50.425-29.314,51.21-.977.027-34.158-.508-44.615-.508-7.707,0-61.931,1.133-87.622-.982-25.339-2.087-27.3-31.812-6.327-34.946.607-.091,1.207-.217,1.8-.366,6.431-1.605,24.6-3.429,44.271-4.434,33.463-1.95,47.109-5.69,43.9-33.558-.049-.429-.087-.859-.108-1.29-.687-14.012-1.27-41.709-1.27-41.709Z" transform="translate(-239.003 -446.372)" fill="#f9f9f9" stroke="#000" stroke-linecap="round" stroke-linejoin="round" stroke-width="1"/><rect width="79.182" height="5.068" transform="translate(103.25 167.458)"/><rect width="79.816" height="5.068" transform="translate(103.251 158.03)"/></g><g transform="translate(141.577 43.309)"><path d="M462.5,357.838l53.691,76.014L578.1,395.528,536.614,332.5Z" transform="translate(-462.5 -332.5)" fill="#ffb0dd"/><path d="M498.5,392.443s91.994,132.068,103.253,148.228c20.9,32.306-26.6,43.075-34.6,43.008-48.385.067-41.234,36.173-19.246,36.173.638.2,40.735-.17,41.35.1,19.948,0,79.745.222,98.834,0,22.254,0,33.118-23.029,19.394-46.113-.264-.444-.514-.894-.743-1.357-2.519-5.092-153.476-231.105-153.767-231.978" transform="translate(-475.696 -335.432)" fill="#ffb0dd" stroke="#000" stroke-linecap="round" stroke-linejoin="round" stroke-width="1"/><line x1="1.47" y1="2.235" transform="translate(104.52 81.082)" fill="#ffb0dd" stroke="#000" stroke-linecap="round" stroke-linejoin="round" stroke-width="0.5"/><line x1="1.47" y1="2.235" transform="translate(44.342 79.815)" fill="#ffb0dd" stroke="#000" stroke-linecap="round" stroke-linejoin="round" stroke-width="0.5"/><line x1="1.47" y1="2.235" transform="translate(97.552 124.79)" fill="#ffb0dd" stroke="#000" stroke-linecap="round" stroke-linejoin="round" stroke-width="0.5"/><line x1="1.47" y1="2.235" transform="translate(78.548 129.858)" fill="#ffb0dd" stroke="#000" stroke-linecap="round" stroke-linejoin="round" stroke-width="0.5"/><line x1="1.47" y1="2.235" transform="translate(93.117 138.093)" fill="#ffb0dd" stroke="#000" stroke-linecap="round" stroke-linejoin="round" stroke-width="0.5"/><line x1="1.47" y1="2.235" transform="translate(117.189 158.363)" fill="#ffb0dd" stroke="#000" stroke-linecap="round" stroke-linejoin="round" stroke-width="0.5"/><line x1="1.47" y1="2.235" transform="translate(110.221 167.231)" fill="#ffb0dd" stroke="#000" stroke-linecap="round" stroke-linejoin="round" stroke-width="0.5"/><line x1="1.47" y1="2.235" transform="translate(120.989 130.491)" fill="#ffb0dd" stroke="#000" stroke-linecap="round" stroke-linejoin="round" stroke-width="0.5"/><line x1="1.47" y1="2.235" transform="translate(143.794 124.79)" fill="#ffb0dd" stroke="#000" stroke-linecap="round" stroke-linejoin="round" stroke-width="0.5"/><line x1="1.47" y1="2.235" transform="translate(153.929 133.025)" fill="#ffb0dd" stroke="#000" stroke-linecap="round" stroke-linejoin="round" stroke-width="0.5"/><line x1="1.47" y1="2.235" transform="translate(120.356 145.061)" fill="#ffb0dd" stroke="#000" stroke-linecap="round" stroke-linejoin="round" stroke-width="0.5"/><line x1="1.47" y1="2.235" transform="translate(81.715 118.456)" fill="#ffb0dd" stroke="#000" stroke-linecap="round" stroke-linejoin="round" stroke-width="0.5"/><line x1="1.47" y1="2.235" transform="translate(98.819 98.185)" fill="#ffb0dd" stroke="#000" stroke-linecap="round" stroke-linejoin="round" stroke-width="0.5"/><line x1="1.47" y1="2.235" transform="translate(85.516 77.281)" fill="#ffb0dd" stroke="#000" stroke-linecap="round" stroke-linejoin="round" stroke-width="0.5"/><line x1="1.47" y1="2.235" transform="translate(102.619 65.879)" fill="#ffb0dd" stroke="#000" stroke-linecap="round" stroke-linejoin="round" stroke-width="0.5"/><line x1="1.47" y1="2.235" transform="translate(82.349 103.253)" fill="#ffb0dd" stroke="#000" stroke-linecap="round" stroke-linejoin="round" stroke-width="0.5"/><line x1="1.47" y1="2.235" transform="translate(63.345 87.416)" fill="#ffb0dd" stroke="#000" stroke-linecap="round" stroke-linejoin="round" stroke-width="0.5"/><line x1="1.47" y1="2.235" transform="translate(134.925 117.189)" fill="#ffb0dd" stroke="#000" stroke-linecap="round" stroke-linejoin="round" stroke-width="0.5"/><line x1="1.47" y1="2.235" transform="translate(101.352 153.295)" fill="#ffb0dd" stroke="#000" stroke-linecap="round" stroke-linejoin="round" stroke-width="0.5"/><line x1="1.47" y1="2.235" transform="translate(101.352 112.754)" fill="#ffb0dd" stroke="#000" stroke-linecap="round" stroke-linejoin="round" stroke-width="0.5"/><line x1="1.47" y1="2.235" transform="translate(63.345 74.747)" fill="#ffb0dd" stroke="#000" stroke-linecap="round" stroke-linejoin="round" stroke-width="0.5"/><line x1="1.47" y1="2.235" transform="translate(119.722 79.815)" fill="#ffb0dd" stroke="#000" stroke-linecap="round" stroke-linejoin="round" stroke-width="0.5"/><line x1="1.47" y1="2.235" transform="translate(101.352 51.31)" fill="#ffb0dd" stroke="#000" stroke-linecap="round" stroke-linejoin="round" stroke-width="0.5"/><line x1="1.47" y1="2.235" transform="translate(134.292 101.986)" fill="#ffb0dd" stroke="#000" stroke-linecap="round" stroke-linejoin="round" stroke-width="0.5"/><line x1="1.47" y1="2.235" transform="translate(81.082 91.217)" fill="#ffb0dd" stroke="#000" stroke-linecap="round" stroke-linejoin="round" stroke-width="0.5"/><line x1="1.47" y1="2.235" transform="translate(77.281 67.146)" fill="#ffb0dd" stroke="#000" stroke-linecap="round" stroke-linejoin="round" stroke-width="0.5"/><line x1="1.47" y1="2.235" transform="translate(63.979 101.986)" fill="#ffb0dd" stroke="#000" stroke-linecap="round" stroke-linejoin="round" stroke-width="0.5"/><line x1="1.47" y1="2.235" transform="translate(107.053 133.025)" fill="#ffb0dd" stroke="#000" stroke-linecap="round" stroke-linejoin="round" stroke-width="0.5"/><line x1="1.47" y1="2.235" transform="translate(117.189 115.922)" fill="#ffb0dd" stroke="#000" stroke-linecap="round" stroke-linejoin="round" stroke-width="0.5"/><line x1="1.47" y1="2.235" transform="translate(139.993 136.826)" fill="#ffb0dd" stroke="#000" stroke-linecap="round" stroke-linejoin="round" stroke-width="0.5"/><line x1="1.47" y1="2.235" transform="translate(116.555 99.452)" fill="#ffb0dd" stroke="#000" stroke-linecap="round" stroke-linejoin="round" stroke-width="0.5"/><line x1="1.47" y1="2.235" transform="translate(92.484 60.811)" fill="#ffb0dd" stroke="#000" stroke-linecap="round" stroke-linejoin="round" stroke-width="0.5"/><line x1="1.47" y1="2.235" transform="translate(135.559 147.594)" fill="#ffb0dd" stroke="#000" stroke-linecap="round" stroke-linejoin="round" stroke-width="0.5"/><path d="M602.156,590.941s7.112,9.812,18.37,25.972c20.9,32.306-26.6,43.075-34.6,43.008-48.385.067-41.234,36.173-19.246,36.173.638.2,40.735-.17,41.35.1,19.948,0,79.745.222,98.834,0,22.254,0,33.118-23.029,19.394-46.113-.264-.444-.514-.894-.743-1.357-2.519-5.092-66.06-99.347-66.35-100.22Z" transform="translate(-494.47 -411.674)" fill="#f9f9f9" stroke="#000" stroke-linecap="round" stroke-linejoin="round" stroke-width="1"/><rect width="70.839" height="5.068" transform="translate(112.241 185.765) rotate(-35.47)"/><rect width="70.839" height="5.068" transform="translate(117.602 193.522) rotate(-35.47)"/></g><g transform="translate(96.285 21.273)"><path d="M391,304v72.214l171.665.633V304Z" transform="translate(-391 -300.017)" fill="#ffb0dd"/><path d="M408.336,297.713s149.687.529,208.171,1.435c21.309.075,20.371-1.435,20.175,10.2,0,0-.831,38.385-.756,57.275.151,8.085-.3,9.672-8.387,9.143l-74.039-.908" transform="translate(-397.354 -297.713)" fill="#ffb0dd" stroke="#000" stroke-linecap="round" stroke-linejoin="round" stroke-width="1"/></g><g transform="translate(75.899 21.273)"><path d="M397.288,387.177c-9.835,1.413-30.464,1.66-37.932-4.987-.454-30.375-5.894-79.188,30.829-84.477" transform="translate(-358.818 -297.713)" fill="#ffb0dd" stroke="#000" stroke-linecap="round" stroke-linejoin="round" stroke-width="1"/></g><g transform="translate(110.85 44.008)"><circle cx="16.194" cy="16.194" r="16.194" transform="translate(0 5.329)" fill="#fff" stroke="#000" stroke-linecap="round" stroke-linejoin="round" stroke-width="1"/><g transform="translate(10.401 39.655)"><line x2="0.099" y2="2.327" transform="translate(5.502 0.74)" fill="#ff5096" stroke="#000" stroke-linecap="round" stroke-miterlimit="10" stroke-width="1"/><line x1="0.664" y2="2.435" fill="#ff5096" stroke="#000" stroke-linecap="round" stroke-miterlimit="10" stroke-width="1"/><line x2="0.664" y2="2.435" transform="translate(10.135)" fill="#ff5096" stroke="#000" stroke-linecap="round" stroke-miterlimit="10" stroke-width="1"/></g><g transform="translate(10.291)"><line y1="2.327" x2="0.099" transform="translate(5.502)" fill="#ff5096" stroke="#000" stroke-linecap="round" stroke-miterlimit="10" stroke-width="1"/><line x1="0.664" y1="2.435" transform="translate(0 0.632)" fill="#ff5096" stroke="#000" stroke-linecap="round" stroke-miterlimit="10" stroke-width="1"/><line y1="2.435" x2="0.664" transform="translate(10.135 0.632)" fill="#ff5096" stroke="#000" stroke-linecap="round" stroke-miterlimit="10" stroke-width="1"/></g></g><g transform="translate(115.745 63.58)"><circle cx="4.987" cy="4.987" r="4.987" stroke="#000" stroke-linecap="round" stroke-linejoin="round" stroke-width="1"/><circle cx="0.87" cy="0.87" r="0.87" transform="translate(2.216 4.117)" fill="#fcfcfc"/><circle cx="0.237" cy="0.237" r="0.237" transform="translate(1.583 2.85)" fill="#fcfcfc"/><circle cx="0.237" cy="0.237" r="0.237" transform="translate(0.95 4.117)" fill="#fcfcfc"/></g><g transform="translate(109.997 48.238)"><path d="M412.692,353.961c-1.4,4.159,29.634,4.195,34.068-.239-.365-6.722-8.86-13.237-17.066-13.437C422.625,340.112,415.385,345.359,412.692,353.961Z" transform="translate(-412.646 -340.28)" fill="#b36993" stroke="#000" stroke-linecap="round" stroke-linejoin="round" stroke-width="0.5"/></g><g transform="translate(25.338 286.861)"><path d="M320.174,760.068c11.211-16.816,1.267-43.708-12.036-43.075-4.461.212-25.142,2.507-29.139,3.167,21.734,10.109,5.7,39.907,5.7,39.907" transform="translate(-279 -716.983)" fill="#5cb357" stroke="#000" stroke-linecap="round" stroke-linejoin="round" stroke-width="1"/></g><g transform="translate(224.679 286.216)"><path d="M634.427,759.7c11.211-16.816,1.47-42.52-11.4-43.708-4.447-.411-25.338,5.068-29.335,5.728,21.734,10.109,5.9,37.98,5.9,37.98" transform="translate(-593.69 -715.965)" fill="#5cb357" stroke="#000" stroke-linecap="round" stroke-linejoin="round" stroke-width="1"/></g><g transform="translate(278.299 22.089)"><path d="M725.41,345.006a32.139,32.139,0,0,1,10.534,1.756c.047-5.735.106-11.569.166-16.825a32.112,32.112,0,0,1-42.742-29.745L681,300l.837,75.7,11.547.214A32.042,32.042,0,0,1,725.41,345.006Z" transform="translate(-679.313 -299.367)" fill="#f9f9f9" stroke="#000" stroke-linecap="round" stroke-linejoin="round" stroke-width="1"/><rect width="76.648" height="4.053" transform="translate(0 76.648) rotate(-90)"/><line x1="1.47" y1="2.235" transform="translate(30.442 56.832)" fill="#ffb0dd" stroke="#000" stroke-linecap="round" stroke-linejoin="round" stroke-width="0.5"/><line x1="1.47" y1="2.235" transform="translate(32.343 64.433)" fill="#ffb0dd" stroke="#000" stroke-linecap="round" stroke-linejoin="round" stroke-width="0.5"/><line x1="1.47" y1="2.235" transform="translate(34.877 71.401)" fill="#ffb0dd" stroke="#000" stroke-linecap="round" stroke-linejoin="round" stroke-width="0.5"/><line x1="1.47" y1="2.235" transform="translate(29.809 71.401)" fill="#ffb0dd" stroke="#000" stroke-linecap="round" stroke-linejoin="round" stroke-width="0.5"/><line x1="1.47" y1="2.235" transform="translate(24.108 64.433)" fill="#ffb0dd" stroke="#000" stroke-linecap="round" stroke-linejoin="round" stroke-width="0.5"/><line x1="1.47" y1="2.235" transform="translate(22.208 71.401)" fill="#ffb0dd" stroke="#000" stroke-linecap="round" stroke-linejoin="round" stroke-width="0.5"/><line x1="1.47" y1="2.235" transform="translate(17.14 69.501)" fill="#ffb0dd" stroke="#000" stroke-linecap="round" stroke-linejoin="round" stroke-width="0.5"/><line x1="1.47" y1="2.235" transform="translate(34.877 51.131)" fill="#ffb0dd" stroke="#000" stroke-linecap="round" stroke-linejoin="round" stroke-width="0.5"/><line x1="1.47" y1="2.235" transform="translate(43.745 48.597)" fill="#ffb0dd" stroke="#000" stroke-linecap="round" stroke-linejoin="round" stroke-width="0.5"/><line y1="2.235" x2="1.47" transform="translate(39.311 16.291)" fill="#ffb0dd" stroke="#000" stroke-linecap="round" stroke-linejoin="round" stroke-width="0.5"/><line y1="2.235" x2="1.47" transform="translate(34.877 26.426)" fill="#ffb0dd" stroke="#000" stroke-linecap="round" stroke-linejoin="round" stroke-width="0.5"/><line y1="2.235" x2="1.47" transform="translate(47.546 17.558)" fill="#ffb0dd" stroke="#000" stroke-linecap="round" stroke-linejoin="round" stroke-width="0.5"/><line y1="2.235" x2="1.47" transform="translate(48.179 28.326)" fill="#ffb0dd" stroke="#000" stroke-linecap="round" stroke-linejoin="round" stroke-width="0.5"/><line y1="2.235" x2="1.47" transform="translate(41.845 26.426)" fill="#ffb0dd" stroke="#000" stroke-linecap="round" stroke-linejoin="round" stroke-width="0.5"/><line y1="2.235" x2="1.47" transform="translate(17.773 1.721)" fill="#ffb0dd" stroke="#000" stroke-linecap="round" stroke-linejoin="round" stroke-width="0.5"/><line y1="2.235" x2="1.47" transform="translate(35.51 10.59)" fill="#ffb0dd" stroke="#000" stroke-linecap="round" stroke-linejoin="round" stroke-width="0.5"/><line y1="2.235" x2="1.47" transform="translate(31.076 11.857)" fill="#ffb0dd" stroke="#000" stroke-linecap="round" stroke-linejoin="round" stroke-width="0.5"/><line y1="2.235" x2="1.47" transform="translate(26.642 20.092)" fill="#ffb0dd" stroke="#000" stroke-linecap="round" stroke-linejoin="round" stroke-width="0.5"/><line y1="2.235" x2="1.47" transform="translate(33.61 18.825)" fill="#ffb0dd" stroke="#000" stroke-linecap="round" stroke-linejoin="round" stroke-width="0.5"/><line y1="2.235" x2="1.47" transform="translate(23.474 13.124)" fill="#ffb0dd" stroke="#000" stroke-linecap="round" stroke-linejoin="round" stroke-width="0.5"/><line y1="2.235" x2="1.47" transform="translate(46.912 10.59)" fill="#ffb0dd" stroke="#000" stroke-linecap="round" stroke-linejoin="round" stroke-width="0.5"/><line y1="2.235" x2="1.47" transform="translate(52.613 21.992)" fill="#ffb0dd" stroke="#000" stroke-linecap="round" stroke-linejoin="round" stroke-width="0.5"/><line y1="2.235" x2="1.47" transform="translate(38.677 3.622)" fill="#ffb0dd" stroke="#000" stroke-linecap="round" stroke-linejoin="round" stroke-width="0.5"/><line y1="2.235" x2="1.47" transform="translate(33.61 1.721)" fill="#ffb0dd" stroke="#000" stroke-linecap="round" stroke-linejoin="round" stroke-width="0.5"/><line y1="2.235" x2="1.47" transform="translate(27.909 4.889)" fill="#ffb0dd" stroke="#000" stroke-linecap="round" stroke-linejoin="round" stroke-width="0.5"/><line y1="2.235" x2="1.47" transform="translate(19.04 9.956)" fill="#ffb0dd" stroke="#000" stroke-linecap="round" stroke-linejoin="round" stroke-width="0.5"/><line y1="2.235" x2="1.47" transform="translate(23.474 2.355)" fill="#ffb0dd" stroke="#000" stroke-linecap="round" stroke-linejoin="round" stroke-width="0.5"/><line y1="2.235" x2="1.47" transform="translate(46.279 2.355)" fill="#ffb0dd" stroke="#000" stroke-linecap="round" stroke-linejoin="round" stroke-width="0.5"/><line y1="2.235" x2="1.47" transform="translate(52.613 8.689)" fill="#ffb0dd" stroke="#000" stroke-linecap="round" stroke-linejoin="round" stroke-width="0.5"/><line x1="1.47" y1="2.235" transform="translate(43.111 56.832)" fill="#ffb0dd" stroke="#000" stroke-linecap="round" stroke-linejoin="round" stroke-width="0.5"/><line x1="1.47" y1="2.235" transform="translate(37.41 59.366)" fill="#ffb0dd" stroke="#000" stroke-linecap="round" stroke-linejoin="round" stroke-width="0.5"/><line x1="1.47" y1="2.235" transform="translate(40.578 65.7)" fill="#ffb0dd" stroke="#000" stroke-linecap="round" stroke-linejoin="round" stroke-width="0.5"/><line x1="1.47" y1="2.235" transform="translate(47.546 70.134)" fill="#ffb0dd" stroke="#000" stroke-linecap="round" stroke-linejoin="round" stroke-width="0.5"/><line x1="1.47" y1="2.235" transform="translate(43.745 73.935)" fill="#ffb0dd" stroke="#000" stroke-linecap="round" stroke-linejoin="round" stroke-width="0.5"/><line x1="1.47" y1="2.235" transform="translate(24.741 58.099)" fill="#ffb0dd" stroke="#000" stroke-linecap="round" stroke-linejoin="round" stroke-width="0.5"/><line x1="1.47" y1="2.235" transform="translate(50.713 52.398)" fill="#ffb0dd" stroke="#000" stroke-linecap="round" stroke-linejoin="round" stroke-width="0.5"/><line x1="1.47" y1="2.235" transform="translate(53.88 48.597)" fill="#ffb0dd" stroke="#000" stroke-linecap="round" stroke-linejoin="round" stroke-width="0.5"/><line x1="1.47" y1="2.235" transform="translate(50.079 64.433)" fill="#ffb0dd" stroke="#000" stroke-linecap="round" stroke-linejoin="round" stroke-width="0.5"/><line x1="1.47" y1="2.235" transform="translate(51.98 73.935)" fill="#ffb0dd" stroke="#000" stroke-linecap="round" stroke-linejoin="round" stroke-width="0.5"/><line x1="1.47" y1="2.235" transform="translate(51.346 59.366)" fill="#ffb0dd" stroke="#000" stroke-linecap="round" stroke-linejoin="round" stroke-width="0.5"/></g><g transform="translate(102.798 112.498)"><line y1="5.576" x2="1.823" transform="translate(0 0.841)" fill="#ff5096" stroke="#000" stroke-linecap="round" stroke-miterlimit="10" stroke-width="1"/><line x1="0.051" y2="5.397" transform="translate(3.959 1.303)" fill="#ff5096" stroke="#000" stroke-linecap="round" stroke-miterlimit="10" stroke-width="1"/><line x2="1.036" y2="5.895" transform="translate(6.611 1.04)" fill="#ff5096" stroke="#000" stroke-linecap="round" stroke-miterlimit="10" stroke-width="1"/><line x2="2.389" y2="5.758" transform="translate(8.671)" fill="#ff5096" stroke="#000" stroke-linecap="round" stroke-miterlimit="10" stroke-width="1"/></g><g transform="translate(74.941 16.555)"><rect width="78.226" height="8.235" rx="4.117" transform="translate(0 24.818) rotate(-18.497)" fill="#5cb357" stroke="#000" stroke-linecap="round" stroke-linejoin="round" stroke-width="1"/></g><g transform="translate(76.876 9.974)"><path d="M428.857,285.926c2.442,7.3-15.26,10.175-34.095,16.476s-31.67,13.641-34.112,6.341,10.847-18.324,29.682-24.625S426.415,278.626,428.857,285.926Z" transform="translate(-360.36 -279.875)" fill="#5cb357" stroke="#000" stroke-linecap="round" stroke-linejoin="round" stroke-width="1"/></g><g transform="translate(77.235 0)"><path d="M421.31,273.4c3.044,9.1-12.833,10.615-29.367,16.145s-27.463,12.986-30.507,3.885,7.89-20.962,24.425-26.493S418.265,264.3,421.31,273.4Z" transform="translate(-360.927 -264.13)" fill="#5cb357" stroke="#000" stroke-linecap="round" stroke-linejoin="round" stroke-width="1"/></g></g></g></svg>